<?xml version="1.0" encoding="utf-8"?>
<!-- Generator: Adobe Illustrator 27.1.0, SVG Export Plug-In . SVG Version: 6.00 Build 0)  -->
<svg version="1.1" id="Layer_1" xmlns="http://www.w3.org/2000/svg" xmlns:xlink="http://www.w3.org/1999/xlink" x="0px" y="0px"
	 viewBox="0 0 228 36.3" style="enable-background:new 0 0 228 36.3;" xml:space="preserve">
<style type="text/css">
	.st0{fill:url(#SVGID_1_);}
	.st1{fill:url(#SVGID_00000084525519176617693510000011938021544970185122_);}
	.st2{fill:url(#SVGID_00000110461544735048399410000018122790967400816054_);}
	.st3{fill:url(#SVGID_00000131348033322744514590000009539876988277698198_);}
	.st4{fill:url(#SVGID_00000077306628907853386080000017081673299108253320_);}
	.st5{fill:url(#SVGID_00000077305109515700016200000017011885565739393471_);}
	.st6{fill:url(#SVGID_00000026148731005006562890000001494804050286965133_);}
	.st7{fill:url(#SVGID_00000128478646204138970510000006192004080915450756_);}
	.st8{fill:url(#SVGID_00000139978743792471595520000013095872838126912445_);}
	.st9{fill:url(#SVGID_00000083790509987242606850000014340363881126193828_);}
	.st10{fill:url(#SVGID_00000103951219881328987260000000899641649910321848_);}
	.st11{fill:url(#SVGID_00000001621960148007694500000002389410294801816201_);}
	.st12{fill:url(#SVGID_00000018934343478687268240000015842402822822026629_);}
	.st13{fill:url(#SVGID_00000034808911456439140700000003436809368592865964_);}
	.st14{fill:url(#SVGID_00000181766528983936007090000002667868040373244075_);}
	.st15{fill:url(#SVGID_00000066479761279057238510000008522059725988768913_);}
	.st16{fill:url(#SVGID_00000094615554453264519730000007006942361777333401_);}
	.st17{fill:url(#SVGID_00000085936477873478425250000006658432346949900969_);}
	.st18{fill:url(#SVGID_00000073701853075010694610000000868376777050354857_);}
	.st19{fill:url(#SVGID_00000127746335787999863300000009034657492147342471_);}
	.st20{fill:url(#SVGID_00000017474025348435240110000010718838710119423140_);}
	.st21{fill:url(#SVGID_00000071558669783138048860000016293610270599121551_);}
	.st22{fill:url(#SVGID_00000000925682354605549920000017630189282746511788_);}
	.st23{fill:url(#SVGID_00000177445946207429428150000018330269751313848994_);}
	.st24{fill:url(#SVGID_00000103262894732746435800000004859530601796641717_);}
	.st25{fill:url(#SVGID_00000050649479685232000550000010068594645394438076_);}
	.st26{fill:url(#SVGID_00000129917999071919150860000007780934944533161406_);}
	.st27{fill:url(#SVGID_00000029032524292091944010000006074612282921982090_);}
	.st28{fill:url(#SVGID_00000039133672955362066010000011279929945066733493_);}
	.st29{fill:url(#SVGID_00000102525097789484464940000006111606249371875721_);}
	.st30{fill:url(#SVGID_00000173882065990123461050000005544179587444406163_);}
	.st31{fill:url(#SVGID_00000073709123957690736540000004776152400239408033_);}
	.st32{fill:url(#SVGID_00000139279647316606594200000009551801005913664134_);}
	.st33{fill:url(#SVGID_00000156575717353996031700000002974288220561935288_);}
	.st34{fill:url(#SVGID_00000181795151627423581630000003698239168319174847_);}
	.st35{fill:url(#SVGID_00000181081815587742777920000001924712461583217029_);}
	.st36{fill:url(#SVGID_00000026155179046418701960000011923285356335853193_);}
	.st37{fill:url(#SVGID_00000034799685986955940700000006853351067717909943_);}
	.st38{fill:url(#SVGID_00000077309577765338739710000016223100913162204564_);}
	.st39{fill:url(#SVGID_00000165917618095873315780000005967812590131289015_);}
	.st40{fill:url(#SVGID_00000008111293829062702040000008749765390040435584_);}
	.st41{fill:url(#SVGID_00000102526596175973479150000002223435946027176625_);}
	.st42{fill:url(#SVGID_00000119084002503876110940000007999447284905876139_);}
	.st43{fill:url(#SVGID_00000180364810770068892800000017609619048080675502_);}
	.st44{fill:url(#SVGID_00000052797395582907377450000009320292467073477310_);}
	.st45{fill:url(#SVGID_00000054237328417348198550000013382805479447303338_);}
	.st46{fill:url(#SVGID_00000174564946319610042100000010466127823001056694_);}
	.st47{fill:url(#SVGID_00000075146117987978767670000008158093241827169179_);}
	.st48{fill:url(#SVGID_00000094609428731971274580000013733272130728494232_);}
	.st49{fill:url(#SVGID_00000087374143842622876510000010016332707121047224_);}
	.st50{fill:url(#SVGID_00000173123358709487719450000000080843169875502978_);}
	.st51{fill:url(#SVGID_00000166656193855213234610000012369563375901575304_);}
	.st52{fill:url(#SVGID_00000082349899588649197930000014498781620688221110_);}
	.st53{fill:url(#SVGID_00000036962061903015843610000015366520631941782438_);}
	.st54{fill:url(#SVGID_00000080188334945532130920000003773836024211060404_);}
	.st55{fill:url(#SVGID_00000093876746554111910220000017215368382837763746_);}
	.st56{fill:url(#SVGID_00000129914722257448913610000003824261164091931541_);}
	.st57{fill:url(#SVGID_00000067919832270119639480000008110442324784632450_);}
	.st58{fill:#FFFFFF;}
	.st59{fill:url(#SVGID_00000167390288848139043730000005895769507751486861_);}
	.st60{fill:url(#SVGID_00000109750540505787258080000012692984403900453507_);}
	.st61{fill:url(#SVGID_00000151521502674474815870000008238459098317319075_);}
	.st62{fill:url(#SVGID_00000171691901651782809040000018150217763540063927_);}
	.st63{fill:#0F0F0F;}
</style>
<linearGradient id="SVGID_1_" gradientUnits="userSpaceOnUse" x1="87.4827" y1="-0.9192" x2="161.6882" y2="41.9234">
	<stop  offset="0" style="stop-color:#C5151C"/>
	<stop  offset="1" style="stop-color:#870305"/>
</linearGradient>
<path class="st0" d="M79.8,35.2v-20c0,0,0.8-13.5,16.6-14l62.7,0.1c1.2,0.1,2.4,0.3,3.5,0.8c2.5,0.9,4.7,2.7,6.2,5
	c1.4,2.5,2.2,5.3,2.4,8.1c0.5,4.9,0.4,10.6-2.6,14.8c-2.6,3.4-6.7,5.4-11,5.3C141.4,35.3,79.8,35.2,79.8,35.2z"/>
<linearGradient id="SVGID_00000119096073449837771860000013407928150280644487_" gradientUnits="userSpaceOnUse" x1="-159.0318" y1="-1.129" x2="-190.5519" y2="27.2894">
	<stop  offset="0" style="stop-color:#C5151C"/>
	<stop  offset="1" style="stop-color:#870305"/>
</linearGradient>
<path style="fill:url(#SVGID_00000119096073449837771860000013407928150280644487_);" d="M-172.5,22.2l-0.4-0.6l1.2-0.7
	c0.7-0.4,0.9-1.3,0.5-2l-8-13.3l0.6-0.4l8,13.3c0.6,1,0.3,2.3-0.7,3L-172.5,22.2z"/>
<linearGradient id="SVGID_00000050644994893122098440000016281225247946479026_" gradientUnits="userSpaceOnUse" x1="-158.3438" y1="-0.3659" x2="-189.8639" y2="28.0524">
	<stop  offset="0" style="stop-color:#C5151C"/>
	<stop  offset="1" style="stop-color:#870305"/>
</linearGradient>
<path style="fill:url(#SVGID_00000050644994893122098440000016281225247946479026_);" d="M-168.7,11.3c-0.7,0-1.4-0.4-1.9-1
	l-1.3-2.2l0.6-0.4l1.3,2.2c0.4,0.7,1.3,0.9,2,0.5l2.4-1.4l0.4,0.6l-2.4,1.4C-167.9,11.2-168.3,11.3-168.7,11.3z"/>
<linearGradient id="SVGID_00000087375802213069093250000013486755502903019164_" gradientUnits="userSpaceOnUse" x1="-158.5837" y1="-0.632" x2="-190.1038" y2="27.7864">
	<stop  offset="0" style="stop-color:#C5151C"/>
	<stop  offset="1" style="stop-color:#870305"/>
</linearGradient>
<path style="fill:url(#SVGID_00000087375802213069093250000013486755502903019164_);" d="M-169.6,6.4l-0.4-0.6l6.6-4
	c1-0.6,2.3-0.3,3,0.7l0.9,1.5l-0.6,0.4l-0.9-1.5c-0.4-0.7-1.3-0.9-2-0.5L-169.6,6.4z"/>
<linearGradient id="SVGID_00000023968227915038738990000009146200504461819536_" gradientUnits="userSpaceOnUse" x1="-162.2968" y1="-4.7504" x2="-193.8169" y2="23.668">
	<stop  offset="0" style="stop-color:#C5151C"/>
	<stop  offset="1" style="stop-color:#870305"/>
</linearGradient>
<path style="fill:url(#SVGID_00000023968227915038738990000009146200504461819536_);" d="M-174,3.7l-0.4-0.6l4.6-2.8
	c1-0.6,2.4-0.3,3,0.7l0,0l0.5,0.8l-0.6,0.3l-0.5-0.8c-0.4-0.7-1.3-0.9-2-0.5L-174,3.7z"/>
<linearGradient id="SVGID_00000038380357916889895030000014400505460401601441_" gradientUnits="userSpaceOnUse" x1="-154.9844" y1="3.3602" x2="-186.5045" y2="31.7785">
	<stop  offset="0" style="stop-color:#C5151C"/>
	<stop  offset="1" style="stop-color:#870305"/>
</linearGradient>
<path style="fill:url(#SVGID_00000038380357916889895030000014400505460401601441_);" d="M-161.2,13.4l-2-3.3
	c-0.4-0.7-1.3-0.9-2-0.5l-2.4,1.4l-0.4-0.6l2.4-1.4c1-0.6,2.3-0.3,3,0.7l2,3.3L-161.2,13.4z"/>
<linearGradient id="SVGID_00000176012178481258205170000005950832712005495172_" gradientUnits="userSpaceOnUse" x1="-153.7768" y1="4.6996" x2="-185.2968" y2="33.118">
	<stop  offset="0" style="stop-color:#C5151C"/>
	<stop  offset="1" style="stop-color:#870305"/>
</linearGradient>
<path style="fill:url(#SVGID_00000176012178481258205170000005950832712005495172_);" d="M-166.4,18.4c-0.2,0-0.3,0-0.5-0.1
	c-0.6-0.1-1-0.5-1.3-1l-1.3-2.2l0.6-0.4l1.3,2.2c0.2,0.3,0.5,0.6,0.9,0.7c0.4,0.1,0.8,0,1.1-0.2l2.4-1.4l0.4,0.6l-2.4,1.4
	C-165.6,18.3-166,18.4-166.4,18.4z"/>
<linearGradient id="SVGID_00000059991473533693033120000011454695804088355720_" gradientUnits="userSpaceOnUse" x1="-154.5565" y1="3.8348" x2="-186.0766" y2="32.2531">
	<stop  offset="0" style="stop-color:#C5151C"/>
	<stop  offset="1" style="stop-color:#870305"/>
</linearGradient>
<path style="fill:url(#SVGID_00000059991473533693033120000011454695804088355720_);" d="M-171.6,24.5l-3.3-5.4
	c-0.6-1-0.3-2.3,0.7-3l2.2-1.3l0.4,0.6l-2.2,1.3c-0.7,0.4-0.9,1.3-0.5,2l3.3,5.4L-171.6,24.5z"/>
<linearGradient id="SVGID_00000127763728467532858630000015450970546642965404_" gradientUnits="userSpaceOnUse" x1="-148.2271" y1="10.855" x2="-179.7471" y2="39.2734">
	<stop  offset="0" style="stop-color:#C5151C"/>
	<stop  offset="1" style="stop-color:#870305"/>
</linearGradient>
<path style="fill:url(#SVGID_00000127763728467532858630000015450970546642965404_);" d="M-159.6,26.4l-3.2-5.4
	c-0.6-1-0.3-2.3,0.7-3l1.7-1l0.4,0.6l-1.7,1c-0.7,0.4-0.9,1.3-0.5,2l3.2,5.4L-159.6,26.4z"/>
<linearGradient id="SVGID_00000116195868879062504160000010235294345001318585_" gradientUnits="userSpaceOnUse" x1="-149.8967" y1="9.0032" x2="-181.4167" y2="37.4216">
	<stop  offset="0" style="stop-color:#C5151C"/>
	<stop  offset="1" style="stop-color:#870305"/>
</linearGradient>
<path style="fill:url(#SVGID_00000116195868879062504160000010235294345001318585_);" d="M-157.9,21.6l-2.8-4.6
	c-0.4-0.7-1.3-0.9-2-0.5l-2.4,1.4l-0.4-0.6l2.4-1.4c1-0.6,2.3-0.3,3,0.7l2.8,4.6L-157.9,21.6z"/>
<linearGradient id="SVGID_00000145760541510271221170000001772250168276843921_" gradientUnits="userSpaceOnUse" x1="-151.8818" y1="6.8015" x2="-183.4018" y2="35.2198">
	<stop  offset="0" style="stop-color:#C5151C"/>
	<stop  offset="1" style="stop-color:#870305"/>
</linearGradient>
<path style="fill:url(#SVGID_00000145760541510271221170000001772250168276843921_);" d="M-171.8,29l-2.4-4
	c-0.3-0.5-0.4-1.1-0.3-1.6c0.1-0.6,0.5-1,1-1.3l0.6-0.4l0.4,0.6l-0.6,0.4c-0.3,0.2-0.6,0.5-0.7,0.9c-0.1,0.4,0,0.8,0.2,1.1l2.4,4
	L-171.8,29z"/>
<linearGradient id="SVGID_00000051357857953963244740000006214312714675375540_" gradientUnits="userSpaceOnUse" x1="-161.4398" y1="-3.7998" x2="-192.9599" y2="24.6185">
	<stop  offset="0" style="stop-color:#C5151C"/>
	<stop  offset="1" style="stop-color:#870305"/>
</linearGradient>
<path style="fill:url(#SVGID_00000051357857953963244740000006214312714675375540_);" d="M-177.3,17.1l-0.4-0.6l1.2-0.7
	c0.3-0.2,0.6-0.5,0.7-0.9c0.1-0.4,0-0.8-0.2-1.1l-4.5-7.4l0.6-0.4l4.5,7.4c0.3,0.5,0.4,1.1,0.3,1.6c-0.1,0.6-0.5,1-1,1.3
	L-177.3,17.1z"/>
<linearGradient id="SVGID_00000000934025153062185530000009847036217371438242_" gradientUnits="userSpaceOnUse" x1="-156.1661" y1="2.0495" x2="-187.6862" y2="30.4679">
	<stop  offset="0" style="stop-color:#C5151C"/>
	<stop  offset="1" style="stop-color:#870305"/>
</linearGradient>
<path style="fill:url(#SVGID_00000000934025153062185530000009847036217371438242_);" d="M-176,24.9l-3-5c-0.3-0.5-0.4-1.1-0.3-1.6
	c0.1-0.6,0.5-1,1-1.3l0.6-0.4l0.4,0.6l-0.6,0.4c-0.3,0.2-0.6,0.5-0.7,0.9s0,0.8,0.2,1.1l3,5L-176,24.9z"/>
<linearGradient id="SVGID_00000036250006752899926790000001537219809024397467_" gradientUnits="userSpaceOnUse" x1="-160.8712" y1="-3.1691" x2="-192.3912" y2="25.2493">
	<stop  offset="0.6434" style="stop-color:#C5151C"/>
	<stop  offset="1" style="stop-color:#870305"/>
</linearGradient>
<path style="fill:url(#SVGID_00000036250006752899926790000001537219809024397467_);" d="M-180.7,19.7l-3-5c-0.6-1-0.3-2.4,0.7-3
	l0.7-0.4l0.3,0.6l-0.7,0.4c-0.7,0.4-0.9,1.3-0.5,2l3,5L-180.7,19.7z"/>
<linearGradient id="SVGID_00000078734464920335816710000014082277111258306692_" gradientUnits="userSpaceOnUse" x1="-155.1544" y1="3.1716" x2="-186.6745" y2="31.5899">
	<stop  offset="0" style="stop-color:#C5151C"/>
	<stop  offset="1" style="stop-color:#870305"/>
</linearGradient>
<polygon style="fill:url(#SVGID_00000078734464920335816710000014082277111258306692_);" points="-163.3,29.4 -178.2,4.9 
	-177.6,4.5 -162.7,29.1 "/>
<linearGradient id="SVGID_00000163794000094482300130000018099655155688520338_" gradientUnits="userSpaceOnUse" x1="-156.6902" y1="1.4682" x2="-188.2102" y2="29.8866">
	<stop  offset="0" style="stop-color:#C5151C"/>
	<stop  offset="1" style="stop-color:#870305"/>
</linearGradient>
<polygon style="fill:url(#SVGID_00000163794000094482300130000018099655155688520338_);" points="-182.2,24.2 -182.6,23.7 
	-177.9,20.8 -177.6,21.4 "/>
<linearGradient id="SVGID_00000075882403796140285380000013562073585072486798_" gradientUnits="userSpaceOnUse" x1="-162.8425" y1="-5.3555" x2="-194.3625" y2="23.0628">
	<stop  offset="0" style="stop-color:#C5151C"/>
	<stop  offset="1" style="stop-color:#870305"/>
</linearGradient>
<polygon style="fill:url(#SVGID_00000075882403796140285380000013562073585072486798_);" points="-182.4,12.1 -182.7,11.5 -178.6,9 
	-178.2,9.6 "/>
<linearGradient id="SVGID_00000041990721374587898710000009766454535174089139_" gradientUnits="userSpaceOnUse" x1="-156.7201" y1="1.4351" x2="-188.2401" y2="29.8534">
	<stop  offset="0" style="stop-color:#C5151C"/>
	<stop  offset="1" style="stop-color:#870305"/>
</linearGradient>
<polygon style="fill:url(#SVGID_00000041990721374587898710000009766454535174089139_);" points="-172,15.6 -172.3,15 -171.9,14.7 
	-171.5,15.3 "/>
<linearGradient id="SVGID_00000086662126703013519260000007532290280830182304_" gradientUnits="userSpaceOnUse" x1="-150.612" y1="8.2098" x2="-182.1321" y2="36.6281">
	<stop  offset="0" style="stop-color:#C5151C"/>
	<stop  offset="1" style="stop-color:#870305"/>
</linearGradient>
<path style="fill:url(#SVGID_00000086662126703013519260000007532290280830182304_);" d="M-169.6,24.5c-0.9-1.4-0.4-3.3,1-4.2
	c1.4-0.9,3.3-0.4,4.2,1c0.9,1.4,0.4,3.3-1,4.2C-166.8,26.4-168.7,26-169.6,24.5z"/>
<linearGradient id="SVGID_00000135660810898861451220000002375127485920809114_" gradientUnits="userSpaceOnUse" x1="-160.9453" y1="-3.2513" x2="-192.4654" y2="25.167">
	<stop  offset="0" style="stop-color:#C5151C"/>
	<stop  offset="1" style="stop-color:#870305"/>
</linearGradient>
<path style="fill:url(#SVGID_00000135660810898861451220000002375127485920809114_);" d="M-186.3,19.1c-0.5-0.8-0.2-1.9,0.6-2.4
	c0.8-0.5,1.9-0.2,2.4,0.6c0.5,0.8,0.2,1.9-0.6,2.4C-184.7,20.2-185.8,20-186.3,19.1z"/>
<linearGradient id="SVGID_00000044891127550599145690000010555204887380419491_" gradientUnits="userSpaceOnUse" x1="-149.2189" y1="9.755" x2="-180.7389" y2="38.1733">
	<stop  offset="0" style="stop-color:#C5151C"/>
	<stop  offset="1" style="stop-color:#870305"/>
</linearGradient>
<path style="fill:url(#SVGID_00000044891127550599145690000010555204887380419491_);" d="M-173.2,31.2c-0.2-0.4-0.1-0.9,0.3-1.1
	c0.4-0.2,0.9-0.1,1.1,0.3c0.2,0.4,0.1,0.9-0.3,1.1C-172.5,31.7-173,31.6-173.2,31.2z"/>
<linearGradient id="SVGID_00000157286917403782018710000002379434708313537954_" gradientUnits="userSpaceOnUse" x1="-164.3493" y1="-7.0268" x2="-195.8693" y2="21.3915">
	<stop  offset="0" style="stop-color:#C5151C"/>
	<stop  offset="1" style="stop-color:#870305"/>
</linearGradient>
<path style="fill:url(#SVGID_00000157286917403782018710000002379434708313537954_);" d="M-186.4,12.6c-0.2-0.4-0.1-0.9,0.3-1.1
	c0.4-0.2,0.9-0.1,1.1,0.3c0.2,0.4,0.1,0.9-0.3,1.1C-185.6,13.2-186.2,13-186.4,12.6z"/>
<linearGradient id="SVGID_00000065790640878330659610000008838922349292768436_" gradientUnits="userSpaceOnUse" x1="-156.8401" y1="1.3019" x2="-188.3602" y2="29.7203">
	<stop  offset="0" style="stop-color:#C5151C"/>
	<stop  offset="1" style="stop-color:#870305"/>
</linearGradient>
<path style="fill:url(#SVGID_00000065790640878330659610000008838922349292768436_);" d="M-177.3,19.5c-0.2-0.4-0.1-0.9,0.3-1.1
	c0.4-0.2,0.9-0.1,1.1,0.3c0.2,0.4,0.1,0.9-0.3,1.1C-176.5,20-177,19.9-177.3,19.5z"/>
<linearGradient id="SVGID_00000076579637734548519190000016728256485842327725_" gradientUnits="userSpaceOnUse" x1="-160.4895" y1="-2.7458" x2="-192.0096" y2="25.6726">
	<stop  offset="0" style="stop-color:#C5151C"/>
	<stop  offset="1" style="stop-color:#870305"/>
</linearGradient>
<path style="fill:url(#SVGID_00000076579637734548519190000016728256485842327725_);" d="M-165.5,1.6c-0.2-0.4-0.1-0.9,0.3-1.1
	c0.4-0.2,0.9-0.1,1.1,0.3c0.2,0.4,0.1,0.9-0.3,1.1C-164.7,2.1-165.2,1.9-165.5,1.6z"/>
<linearGradient id="SVGID_00000177478318371966092470000006854477395689222557_" gradientUnits="userSpaceOnUse" x1="-150.8999" y1="7.8905" x2="-182.42" y2="36.3088">
	<stop  offset="0" style="stop-color:#C5151C"/>
	<stop  offset="1" style="stop-color:#870305"/>
</linearGradient>
<path style="fill:url(#SVGID_00000177478318371966092470000006854477395689222557_);" d="M-159.4,15.4c-0.2-0.4-0.1-0.9,0.3-1.1
	c0.4-0.2,0.9-0.1,1.1,0.3c0.2,0.4,0.1,0.9-0.3,1.1C-158.7,15.9-159.2,15.8-159.4,15.4z"/>
<linearGradient id="SVGID_00000176761977565425808210000014626411420710187690_" gradientUnits="userSpaceOnUse" x1="-149.4145" y1="9.538" x2="-180.9346" y2="37.9563">
	<stop  offset="0" style="stop-color:#C5151C"/>
	<stop  offset="1" style="stop-color:#870305"/>
</linearGradient>
<path style="fill:url(#SVGID_00000176761977565425808210000014626411420710187690_);" d="M-161.5,20.3c-0.2-0.4-0.1-0.9,0.3-1.1
	c0.4-0.2,0.9-0.1,1.1,0.3c0.2,0.4,0.1,0.9-0.3,1.1C-160.8,20.8-161.3,20.7-161.5,20.3z"/>
<linearGradient id="SVGID_00000031892641238400713240000015705519865913629072_" gradientUnits="userSpaceOnUse" x1="-146.928" y1="12.2959" x2="-178.448" y2="40.7143">
	<stop  offset="0" style="stop-color:#C5151C"/>
	<stop  offset="1" style="stop-color:#870305"/>
</linearGradient>
<path style="fill:url(#SVGID_00000031892641238400713240000015705519865913629072_);" d="M-162.8,26.4c-0.2-0.4-0.1-0.9,0.3-1.1
	c0.4-0.2,0.9-0.1,1.1,0.3c0.2,0.4,0.1,0.9-0.3,1.1C-162.1,26.9-162.6,26.8-162.8,26.4z"/>
<linearGradient id="SVGID_00000062884314287914658800000001238171355065881511_" gradientUnits="userSpaceOnUse" x1="-151.4579" y1="7.2716" x2="-182.9779" y2="35.69">
	<stop  offset="0" style="stop-color:#C5151C"/>
	<stop  offset="1" style="stop-color:#870305"/>
</linearGradient>
<path style="fill:url(#SVGID_00000062884314287914658800000001238171355065881511_);" d="M-165.5,19.7c-0.2-0.4-0.1-0.9,0.3-1.1
	c0.4-0.2,0.9-0.1,1.1,0.3c0.2,0.4,0.1,0.9-0.3,1.1C-164.7,20.2-165.2,20.1-165.5,19.7z"/>
<linearGradient id="SVGID_00000177474083709964786290000006020155921742363014_" gradientUnits="userSpaceOnUse" x1="-158.2288" y1="-0.2383" x2="-189.7489" y2="28.18">
	<stop  offset="0" style="stop-color:#C5151C"/>
	<stop  offset="1" style="stop-color:#870305"/>
</linearGradient>
<path style="fill:url(#SVGID_00000177474083709964786290000006020155921742363014_);" d="M-169.5,9.7c-0.2-0.4-0.1-0.9,0.3-1.1
	c0.4-0.2,0.9-0.1,1.1,0.3c0.2,0.4,0.1,0.9-0.3,1.1C-168.7,10.2-169.2,10.1-169.5,9.7z"/>
<linearGradient id="SVGID_00000029022246272096096990000002821041404381566364_" gradientUnits="userSpaceOnUse" x1="-164.4506" y1="-7.1392" x2="-195.9706" y2="21.2792">
	<stop  offset="0" style="stop-color:#C5151C"/>
	<stop  offset="1" style="stop-color:#870305"/>
</linearGradient>
<path style="fill:url(#SVGID_00000029022246272096096990000002821041404381566364_);" d="M-174.2,1.4c-0.2-0.4-0.1-0.9,0.3-1.1
	c0.4-0.2,0.9-0.1,1.1,0.3c0.2,0.4,0.1,0.9-0.3,1.1C-173.5,2-174,1.8-174.2,1.4z"/>
<linearGradient id="SVGID_00000142135883282221760580000017036128742906143118_" gradientUnits="userSpaceOnUse" x1="-148.5911" y1="10.4513" x2="-180.1112" y2="38.8696">
	<stop  offset="0" style="stop-color:#C5151C"/>
	<stop  offset="1" style="stop-color:#870305"/>
</linearGradient>
<path style="fill:url(#SVGID_00000142135883282221760580000017036128742906143118_);" d="M-157.9,18.4c-0.5-0.8-0.2-1.9,0.6-2.4
	c0.8-0.5,1.9-0.2,2.4,0.6c0.5,0.8,0.2,1.9-0.6,2.4C-156.4,19.5-157.4,19.3-157.9,18.4z"/>
<linearGradient id="SVGID_00000043442580368234381610000009775737361984322473_" gradientUnits="userSpaceOnUse" x1="-154.596" y1="3.7909" x2="-186.1161" y2="32.2093">
	<stop  offset="0" style="stop-color:#C5151C"/>
	<stop  offset="1" style="stop-color:#870305"/>
</linearGradient>
<path style="fill:url(#SVGID_00000043442580368234381610000009775737361984322473_);" d="M-167.9,15.1c-0.7-1.2-0.3-2.8,0.9-3.5
	c1.2-0.7,2.8-0.3,3.5,0.9c0.7,1.2,0.3,2.8-0.9,3.5C-165.6,16.7-167.2,16.4-167.9,15.1z"/>
<linearGradient id="SVGID_00000015350804303400457290000003522117369103719333_" gradientUnits="userSpaceOnUse" x1="-160.1204" y1="-2.3364" x2="-191.6405" y2="26.082">
	<stop  offset="0" style="stop-color:#C5151C"/>
	<stop  offset="1" style="stop-color:#870305"/>
</linearGradient>
<path style="fill:url(#SVGID_00000015350804303400457290000003522117369103719333_);" d="M-170.9,6.8c-0.7-1.1-0.3-2.5,0.8-3.2
	c1.1-0.7,2.5-0.3,3.2,0.8c0.7,1.1,0.3,2.5-0.8,3.2C-168.9,8.3-170.3,7.9-170.9,6.8z"/>
<linearGradient id="SVGID_00000181082464693338194380000010850977572777120937_" gradientUnits="userSpaceOnUse" x1="-157.6935" y1="0.3554" x2="-189.2136" y2="28.7738">
	<stop  offset="0" style="stop-color:#C5151C"/>
	<stop  offset="1" style="stop-color:#870305"/>
</linearGradient>
<path style="fill:url(#SVGID_00000181082464693338194380000010850977572777120937_);" d="M-164.9,6.4c-0.5-0.9-0.3-2.1,0.6-2.6
	c0.9-0.5,2.1-0.3,2.6,0.6c0.5,0.9,0.3,2.1-0.6,2.6C-163.2,7.6-164.4,7.3-164.9,6.4z"/>
<linearGradient id="SVGID_00000050649000607483895960000010361702656749155516_" gradientUnits="userSpaceOnUse" x1="-154.1931" y1="4.2379" x2="-185.7132" y2="32.6562">
	<stop  offset="0" style="stop-color:#C5151C"/>
	<stop  offset="1" style="stop-color:#870305"/>
</linearGradient>
<path style="fill:url(#SVGID_00000050649000607483895960000010361702656749155516_);" d="M-158.6,7.9c-0.4-0.7-0.2-1.6,0.5-2
	c0.7-0.4,1.6-0.2,2,0.5c0.4,0.7,0.2,1.6-0.5,2C-157.3,8.8-158.2,8.5-158.6,7.9z"/>
<linearGradient id="SVGID_00000170979750060633416770000001110984992099372175_" gradientUnits="userSpaceOnUse" x1="-148.9592" y1="10.043" x2="-180.4793" y2="38.4613">
	<stop  offset="0" style="stop-color:#C5151C"/>
	<stop  offset="1" style="stop-color:#870305"/>
</linearGradient>
<path style="fill:url(#SVGID_00000170979750060633416770000001110984992099372175_);" d="M-169.9,28.5c-0.4-0.7-0.2-1.7,0.5-2.1
	c0.7-0.4,1.7-0.2,2.1,0.5c0.4,0.7,0.2,1.7-0.5,2.1C-168.5,29.5-169.5,29.3-169.9,28.5z"/>
<linearGradient id="SVGID_00000153688446832425415790000009148958193403781042_" gradientUnits="userSpaceOnUse" x1="-156.82" y1="1.3243" x2="-188.34" y2="29.7426">
	<stop  offset="0" style="stop-color:#C5151C"/>
	<stop  offset="1" style="stop-color:#870305"/>
</linearGradient>
<path style="fill:url(#SVGID_00000153688446832425415790000009148958193403781042_);" d="M-174.3,16.6c-0.5-0.9-0.3-2,0.6-2.6
	c0.9-0.5,2.1-0.3,2.6,0.6c0.5,0.9,0.3,2-0.6,2.6C-172.6,17.8-173.8,17.5-174.3,16.6z"/>
<linearGradient id="SVGID_00000168077988847518094590000015791142889758196665_" gradientUnits="userSpaceOnUse" x1="-160.7594" y1="-3.0451" x2="-192.2794" y2="25.3733">
	<stop  offset="0" style="stop-color:#C5151C"/>
	<stop  offset="1" style="stop-color:#870305"/>
</linearGradient>
<path style="fill:url(#SVGID_00000168077988847518094590000015791142889758196665_);" d="M-181.9,15.4c-0.7-1.2-0.4-2.8,0.9-3.6
	c1.2-0.7,2.8-0.4,3.6,0.9c0.7,1.2,0.4,2.8-0.9,3.6C-179.6,17-181.2,16.6-181.9,15.4z"/>
<linearGradient id="SVGID_00000061450740901256062230000008264800430250024882_" gradientUnits="userSpaceOnUse" x1="-164.8077" y1="-7.5353" x2="-196.3278" y2="20.8831">
	<stop  offset="0" style="stop-color:#C5151C"/>
	<stop  offset="1" style="stop-color:#870305"/>
</linearGradient>
<path style="fill:url(#SVGID_00000061450740901256062230000008264800430250024882_);" d="M-183.9,9.2c-0.6-0.9-0.3-2.1,0.7-2.7
	c0.9-0.6,2.1-0.3,2.7,0.7c0.6,0.9,0.3,2.1-0.7,2.7C-182.2,10.4-183.4,10.1-183.9,9.2z"/>
<linearGradient id="SVGID_00000072964933117645136770000015991350877464710288_" gradientUnits="userSpaceOnUse" x1="-154.7538" y1="3.6159" x2="-186.2739" y2="32.0343">
	<stop  offset="0" style="stop-color:#C5151C"/>
	<stop  offset="1" style="stop-color:#870305"/>
</linearGradient>
<path style="fill:url(#SVGID_00000072964933117645136770000015991350877464710288_);" d="M-181,26.8c-0.6-1-0.3-2.2,0.7-2.8
	c1-0.6,2.2-0.3,2.8,0.7c0.6,1,0.3,2.2-0.7,2.8C-179.2,28.1-180.4,27.7-181,26.8z"/>
<linearGradient id="SVGID_00000103260951746699112290000008868499930654787228_" gradientUnits="userSpaceOnUse" x1="-145.5667" y1="13.8057" x2="-177.0868" y2="42.2241">
	<stop  offset="0" style="stop-color:#C5151C"/>
	<stop  offset="1" style="stop-color:#870305"/>
</linearGradient>
<polygon style="fill:url(#SVGID_00000103260951746699112290000008868499930654787228_);" points="-162.5,30.1 -164,29.4 
	-162.4,28.5 "/>
<linearGradient id="SVGID_00000173139257043373681760000004576280134631600525_" gradientUnits="userSpaceOnUse" x1="-146.9671" y1="12.2525" x2="-178.4872" y2="40.6709">
	<stop  offset="0" style="stop-color:#C5151C"/>
	<stop  offset="1" style="stop-color:#870305"/>
</linearGradient>
<polygon style="fill:url(#SVGID_00000173139257043373681760000004576280134631600525_);" points="-157.1,22.3 -158.5,21.7 
	-157,20.7 "/>
<linearGradient id="SVGID_00000174592480379905996870000003302008083342553516_" gradientUnits="userSpaceOnUse" x1="-152.3944" y1="6.2329" x2="-183.9144" y2="34.6512">
	<stop  offset="0" style="stop-color:#C5151C"/>
	<stop  offset="1" style="stop-color:#870305"/>
</linearGradient>
<polygon style="fill:url(#SVGID_00000174592480379905996870000003302008083342553516_);" points="-160.3,14.3 -161.7,13.7 
	-160.1,12.7 "/>
<linearGradient id="SVGID_00000090252657146844479000000017073424080065271946_" gradientUnits="userSpaceOnUse" x1="-153.0001" y1="5.5611" x2="-184.5198" y2="33.9792">
	<stop  offset="0" style="stop-color:#C5151C"/>
	<stop  offset="1" style="stop-color:#870305"/>
</linearGradient>
<path style="fill:url(#SVGID_00000090252657146844479000000017073424080065271946_);" d="M-156.4,13.5l-2.4-4
	c-0.2-0.3-0.5-0.6-0.9-0.7c-0.4-0.1-0.8,0-1.1,0.2l-2,1.3l-0.4-0.6l2-1.3c0.5-0.3,1.1-0.4,1.6-0.3c0.6,0.1,1,0.5,1.3,1l2.4,4
	L-156.4,13.5z"/>
<linearGradient id="SVGID_00000176027637229348088590000002712061456795054005_" gradientUnits="userSpaceOnUse" x1="-150.1796" y1="8.6894" x2="-181.6997" y2="37.1077">
	<stop  offset="0" style="stop-color:#C5151C"/>
	<stop  offset="1" style="stop-color:#870305"/>
</linearGradient>
<polygon style="fill:url(#SVGID_00000176027637229348088590000002712061456795054005_);" points="-155.5,14.5 -157,13.8 
	-155.4,12.9 "/>
<linearGradient id="SVGID_00000159464300876319920160000015424210383442734978_" gradientUnits="userSpaceOnUse" x1="-145.3409" y1="14.0562" x2="-176.861" y2="42.4745">
	<stop  offset="0" style="stop-color:#C5151C"/>
	<stop  offset="1" style="stop-color:#870305"/>
</linearGradient>
<polygon style="fill:url(#SVGID_00000159464300876319920160000015424210383442734978_);" points="-158.8,27.1 -160.2,26.5 
	-158.7,25.6 "/>
<linearGradient id="SVGID_00000149363681352717602900000006359127731643781821_" gradientUnits="userSpaceOnUse" x1="-151.649" y1="7.0597" x2="-183.169" y2="35.478">
	<stop  offset="0" style="stop-color:#C5151C"/>
	<stop  offset="1" style="stop-color:#870305"/>
</linearGradient>
<polygon style="fill:url(#SVGID_00000149363681352717602900000006359127731643781821_);" points="-170.8,25.3 -172.3,24.7 
	-170.7,23.7 "/>
<linearGradient id="SVGID_00000074415354794778902580000000997733166954344634_" gradientUnits="userSpaceOnUse" x1="-158.149" y1="-0.1499" x2="-189.6691" y2="28.2685">
	<stop  offset="0" style="stop-color:#C5151C"/>
	<stop  offset="1" style="stop-color:#870305"/>
</linearGradient>
<polygon style="fill:url(#SVGID_00000074415354794778902580000000997733166954344634_);" points="-179.9,20.4 -181.3,19.8 
	-179.8,18.8 "/>
<linearGradient id="SVGID_00000106124534454222672360000015047583244390035644_" gradientUnits="userSpaceOnUse" x1="-149.5365" y1="9.4027" x2="-181.0565" y2="37.8211">
	<stop  offset="0" style="stop-color:#C5151C"/>
	<stop  offset="1" style="stop-color:#870305"/>
</linearGradient>
<polygon style="fill:url(#SVGID_00000106124534454222672360000015047583244390035644_);" points="-171,29.7 -172.4,29.1 
	-170.9,28.1 "/>
<linearGradient id="SVGID_00000089565084440565423440000009324871371381193912_" gradientUnits="userSpaceOnUse" x1="-153.468" y1="5.0421" x2="-184.9881" y2="33.4604">
	<stop  offset="0" style="stop-color:#C5151C"/>
	<stop  offset="1" style="stop-color:#870305"/>
</linearGradient>
<polygon style="fill:url(#SVGID_00000089565084440565423440000009324871371381193912_);" points="-175.2,25.6 -176.6,25 -175.1,24 
	"/>
<linearGradient id="SVGID_00000159430250278070609150000012201130897344040366_" gradientUnits="userSpaceOnUse" x1="-157.0158" y1="1.107" x2="-188.5359" y2="29.5254">
	<stop  offset="0" style="stop-color:#C5151C"/>
	<stop  offset="1" style="stop-color:#870305"/>
</linearGradient>
<polygon style="fill:url(#SVGID_00000159430250278070609150000012201130897344040366_);" points="-183.4,24.5 -182.7,23.1 
	-181.8,24.7 "/>
<linearGradient id="SVGID_00000040542080675329439450000006120703860724326799_" gradientUnits="userSpaceOnUse" x1="-151.5458" y1="7.1741" x2="-183.0658" y2="35.5925">
	<stop  offset="0" style="stop-color:#C5151C"/>
	<stop  offset="1" style="stop-color:#870305"/>
</linearGradient>
<polygon style="fill:url(#SVGID_00000040542080675329439450000006120703860724326799_);" points="-175.9,29.1 -176.3,28.5 
	-172.9,26.5 -172.6,27.1 "/>
<linearGradient id="SVGID_00000022542456265337251560000010048901443050090911_" gradientUnits="userSpaceOnUse" x1="-151.7837" y1="6.9102" x2="-183.3038" y2="35.3285">
	<stop  offset="0" style="stop-color:#C5151C"/>
	<stop  offset="1" style="stop-color:#870305"/>
</linearGradient>
<polygon style="fill:url(#SVGID_00000022542456265337251560000010048901443050090911_);" points="-177.1,29.4 -176.5,27.9 
	-175.5,29.5 "/>
<linearGradient id="SVGID_00000142163046781473267210000009430547756333019064_" gradientUnits="userSpaceOnUse" x1="-160.2245" y1="-2.4518" x2="-191.7445" y2="25.9665">
	<stop  offset="0" style="stop-color:#C5151C"/>
	<stop  offset="1" style="stop-color:#870305"/>
</linearGradient>
<polygon style="fill:url(#SVGID_00000142163046781473267210000009430547756333019064_);" points="-171.7,7.6 -172,7.1 -167.4,4.3 
	-167,4.8 "/>
<linearGradient id="SVGID_00000181085569441714318460000003353325228364409528_" gradientUnits="userSpaceOnUse" x1="-156.6349" y1="1.5295" x2="-188.155" y2="29.9479">
	<stop  offset="0" style="stop-color:#C5151C"/>
	<stop  offset="1" style="stop-color:#870305"/>
</linearGradient>
<polygon style="fill:url(#SVGID_00000181085569441714318460000003353325228364409528_);" points="-159.3,4.9 -160.8,4.3 -159.2,3.3 
	"/>
<linearGradient id="SVGID_00000008864285441467030210000018264971433965619127_" gradientUnits="userSpaceOnUse" x1="-161.0148" y1="-3.3284" x2="-192.5349" y2="25.09">
	<stop  offset="0" style="stop-color:#C5151C"/>
	<stop  offset="1" style="stop-color:#870305"/>
</linearGradient>
<polygon style="fill:url(#SVGID_00000008864285441467030210000018264971433965619127_);" points="-166.4,2.5 -167.9,1.9 -166.3,0.9 
	"/>
<linearGradient id="SVGID_00000163779778260192805370000017537560789123204761_" gradientUnits="userSpaceOnUse" x1="-159.8062" y1="-1.9879" x2="-191.3262" y2="26.4305">
	<stop  offset="0" style="stop-color:#C5151C"/>
	<stop  offset="1" style="stop-color:#870305"/>
</linearGradient>
<polygon style="fill:url(#SVGID_00000163779778260192805370000017537560789123204761_);" points="-169.2,15.7 -176.5,3.7 
	-175.9,3.4 -168.6,15.3 "/>
<linearGradient id="SVGID_00000152224801809695576660000004379200067941408176_" gradientUnits="userSpaceOnUse" x1="-161.4601" y1="-3.8223" x2="-192.9802" y2="24.596">
	<stop  offset="0" style="stop-color:#C5151C"/>
	<stop  offset="1" style="stop-color:#870305"/>
</linearGradient>
<polygon style="fill:url(#SVGID_00000152224801809695576660000004379200067941408176_);" points="-170.7,10 -175,2.8 -174.5,2.4 
	-170.1,9.6 "/>
<g>
	<path class="st58" d="M-167.5,13v1.7c0,0.1,0.1,0.2,0.2,0.2h3.1c0.1,0,0.2-0.1,0.2-0.2V13l-1.8,0.9L-167.5,13z"/>
</g>
<g>
	<path class="st58" d="M-164.2,12.7h-3.1c-0.1,0-0.2,0.1-0.2,0.2v0l1.8,0.9l1.8-0.9v0C-164,12.8-164.1,12.7-164.2,12.7z"/>
</g>
<g>
	<path class="st58" d="M-155.4,18.4L-155.4,18.4c0.1,0.1,0.2,0,0.2,0c0-0.1,0-0.2,0-0.2l-0.1,0c0,0.1,0,0.1-0.1,0.2
		C-155.3,18.3-155.3,18.3-155.4,18.4z"/>
</g>
<g>
	<path class="st58" d="M-157.7,16.9c-0.2,0.4-0.1,0.9,0.3,1.2c0.4,0.2,0.8,0.1,1.1-0.2l0.8,0.4c0.1-0.1,0.1-0.1,0.1-0.3l-0.8-0.4
		c0.1-0.4,0-0.8-0.4-1C-156.9,16.3-157.4,16.5-157.7,16.9z M-156.4,17.6c-0.2,0.3-0.5,0.4-0.8,0.2c-0.3-0.2-0.4-0.5-0.2-0.8
		c0.2-0.3,0.5-0.4,0.8-0.2C-156.3,17-156.2,17.3-156.4,17.6z"/>
</g>
<path class="st58" d="M-162.5,4.9L-162.5,4.9l-0.1-0.2c0-0.4-0.3-0.7-0.7-0.7c-0.4,0-0.7,0.3-0.7,0.7v0.2h-0.1
	c-0.1,0-0.2,0.1-0.2,0.2v1.1c0,0.1,0.1,0.2,0.2,0.2h1.6c0.1,0,0.2-0.1,0.2-0.2V5.2C-162.2,5-162.3,4.9-162.5,4.9z M-163.7,4.7
	c0-0.2,0.2-0.4,0.4-0.4c0.2,0,0.4,0.2,0.4,0.4v0.2h-0.8V4.7z"/>
<g>
	<g>
		<path class="st58" d="M-172.7,16.2c-0.2,0-0.3,0.1-0.3,0.3c0,0.2,0.1,0.3,0.3,0.3c0.2,0,0.3-0.1,0.3-0.3
			C-172.4,16.3-172.6,16.2-172.7,16.2z"/>
	</g>
	<g>
		<path class="st58" d="M-172.8,15.4c-0.4,0-0.7,0.2-0.9,0.5l0.3,0.3c0.1-0.2,0.3-0.3,0.5-0.3c0.2,0,0.4,0.1,0.6,0.3l0.3-0.3
			C-172.1,15.6-172.4,15.4-172.8,15.4z"/>
	</g>
	<g>
		<path class="st58" d="M-172.8,14.7c-0.6,0-1.1,0.3-1.4,0.7l0.3,0.3c0.2-0.3,0.6-0.6,1.1-0.6c0.4,0,0.8,0.2,1.1,0.6l0.3-0.3
			C-171.7,15-172.2,14.7-172.8,14.7z"/>
	</g>
</g>
<g>
	<g>
		
			<linearGradient id="SVGID_00000028312307098346103370000004240126386868924578_" gradientUnits="userSpaceOnUse" x1="188.928" y1="13.46" x2="192.7687" y2="13.46" gradientTransform="matrix(1 1.647718e-03 -1.647718e-03 1 4.513757e-02 -0.3573)">
			<stop  offset="0" style="stop-color:#C5151C"/>
			<stop  offset="1" style="stop-color:#870305"/>
		</linearGradient>
		<path style="fill:url(#SVGID_00000028312307098346103370000004240126386868924578_);" d="M190.9,11.5c-1.1,0-1.9,0.9-1.9,1.9
			c0,1.1,0.9,1.9,1.9,1.9c1.1,0,1.9-0.9,1.9-1.9C192.8,12.4,191.9,11.5,190.9,11.5z"/>
	</g>
	<g>
		
			<linearGradient id="SVGID_00000108308998930548127720000005917900189374983352_" gradientUnits="userSpaceOnUse" x1="185.5185" y1="9.4036" x2="196.2321" y2="9.4036" gradientTransform="matrix(1 1.647718e-03 -1.647718e-03 1 4.513757e-02 -0.3573)">
			<stop  offset="0" style="stop-color:#C5151C"/>
			<stop  offset="1" style="stop-color:#870305"/>
		</linearGradient>
		<path style="fill:url(#SVGID_00000108308998930548127720000005917900189374983352_);" d="M190.9,7c-2.1,0-4,1.1-5.3,2.8l2,1.8
			c0.8-1.1,2-1.7,3.3-1.7c1.4,0,2.6,0.7,3.4,1.9l2-1.7C195,8.2,193.1,7,190.9,7z"/>
	</g>
	<g>
		
			<linearGradient id="SVGID_00000041986819757816312760000015585014958073518750_" gradientUnits="userSpaceOnUse" x1="182.4069" y1="5.8255" x2="199.3735" y2="5.8255" gradientTransform="matrix(1 1.647718e-03 -1.647718e-03 1 4.513757e-02 -0.3573)">
			<stop  offset="0" style="stop-color:#C5151C"/>
			<stop  offset="1" style="stop-color:#870305"/>
		</linearGradient>
		<path style="fill:url(#SVGID_00000041986819757816312760000015585014958073518750_);" d="M190.9,2.6c-3.4,0-6.4,1.7-8.4,4.4l2,1.8
			c1.5-2.1,3.8-3.4,6.5-3.4c2.7,0,5,1.4,6.6,3.6l2-1.7C197.4,4.4,194.3,2.6,190.9,2.6z"/>
	</g>
</g>
<g>
	<path class="st58" d="M-183.7,17.4L-183.7,17.4L-183.7,17.4C-183.8,17.3-183.8,17.3-183.7,17.4l-0.4-0.1c0,0,0,0,0,0v0.1h-0.2
		l-0.1-0.2c0,0,0,0,0,0h-0.1h-0.1h-0.1c0,0,0,0,0,0l-0.1,0.2h-0.7c-0.1,0-0.1,0.1-0.1,0.1v1.3c0,0.1,0.1,0.1,0.1,0.1h2
		c0.1,0,0.1-0.1,0.1-0.1v-1.3C-183.6,17.4-183.7,17.4-183.7,17.4z M-184.8,18.7c-0.3,0-0.6-0.2-0.6-0.6c0-0.3,0.2-0.6,0.6-0.6
		c0.3,0,0.6,0.2,0.6,0.6C-184.2,18.5-184.5,18.7-184.8,18.7z"/>
</g>
<g>
	<path class="st58" d="M-184.8,17.8c-0.2,0-0.4,0.2-0.4,0.4c0,0.2,0.2,0.4,0.4,0.4c0.2,0,0.4-0.2,0.4-0.4
		C-184.4,17.9-184.6,17.8-184.8,17.8z"/>
</g>
<path class="st58" d="M-181.8,6.9h-1c-0.1,0-0.2,0.1-0.2,0.2v2.1c0,0.1,0.1,0.2,0.2,0.2h1c0.1,0,0.2-0.1,0.2-0.2V7.1
	C-181.5,7-181.6,6.9-181.8,6.9z M-182.1,9.3C-182.1,9.3-182.2,9.3-182.1,9.3l-0.2,0.1c0,0-0.1,0-0.1-0.1V9.2c0,0,0-0.1,0.1-0.1h0.2
	C-182.2,9.1-182.1,9.2-182.1,9.3L-182.1,9.3z M-181.7,9h-1.1v-2h1.1V9z"/>
<path class="st58" d="M-180.7,25.6c0,0.8,0.6,1.4,1.4,1.4c0.3,0,0.5-0.1,0.8-0.2l0.2,0.3l0.3-0.5l0.3-0.5l-0.6,0l-0.6,0l0.2,0.3
	c-0.1,0.1-0.3,0.1-0.5,0.1c-0.5,0-0.8-0.4-0.8-0.8c0-0.5,0.4-0.8,0.8-0.8c0.2,0,0.5,0.1,0.6,0.3c0.1,0.1,0.3,0.1,0.4,0
	c0.1-0.1,0.1-0.1,0.1-0.2c0-0.1,0-0.1-0.1-0.2c-0.3-0.3-0.6-0.5-1.1-0.5C-180.1,24.2-180.7,24.9-180.7,25.6z"/>
<g>
	<g>
		<path class="st58" d="M-165,21.2h-3.7c-0.1,0-0.1,0.1-0.1,0.1v2.6c0,0.1,0.1,0.1,0.1,0.1h3.7c0.1,0,0.1-0.1,0.1-0.1v-2.6
			C-164.9,21.3-165,21.2-165,21.2z M-165.3,23.6c0,0.1,0,0.1-0.1,0.1h-3c-0.1,0-0.1,0-0.1-0.1v-2c0-0.1,0-0.1,0.1-0.1h3
			c0.1,0,0.1,0,0.1,0.1V23.6z"/>
	</g>
	<g>
		<path class="st58" d="M-169.2,24.2v0.2c0,0.1,0.1,0.2,0.2,0.2h4.2c0.1,0,0.2-0.1,0.2-0.2v-0.2H-169.2z M-166.6,24.4h-0.6
			c0,0,0,0,0,0c0,0,0,0,0,0L-166.6,24.4C-166.6,24.3-166.5,24.3-166.6,24.4C-166.5,24.4-166.6,24.4-166.6,24.4z"/>
	</g>
</g>
<path class="st58" d="M-179.4,15l0-0.3c0.2-0.2,0.4-0.4,0.5-0.6c0.4-0.8,0.2-1.3,0.2-1.3l0.1-0.2l-0.2,0.2c0,0-0.6,0-1.2,0.6
	c-0.2,0.2-0.4,0.4-0.5,0.7l-0.3,0.1c0,0-0.4,0.2-0.7,0.8c0,0,0.4-0.2,0.7-0.1c0,0.1,0,0.1-0.1,0.2c0,0,0,0.1,0.2,0.3
	c0.2,0.2,0.3,0.2,0.3,0.2c0.1,0,0.1-0.1,0.2-0.1c0.2,0.2,0.1,0.7,0.1,0.7C-179.4,15.4-179.4,15-179.4,15z M-179.4,13.6
	c-0.1-0.1-0.1-0.2,0-0.3c0.1-0.1,0.2-0.1,0.3,0c0.1,0.1,0.1,0.2,0,0.3C-179.2,13.6-179.3,13.6-179.4,13.6z"/>
<path class="st58" d="M-167.9,26.8L-169,27v0.2v0.1v0.1v0.2v0.6c-0.1,0-0.2,0-0.3,0c-0.2,0.1-0.3,0.2-0.3,0.3c0,0.1,0.2,0.1,0.4,0.1
	c0.2-0.1,0.3-0.2,0.3-0.3l0,0v-0.7l0.8-0.2v0.5c-0.1,0-0.2,0-0.3,0c-0.2,0.1-0.3,0.2-0.3,0.3c0,0.1,0.2,0.1,0.4,0.1
	c0.2-0.1,0.3-0.2,0.3-0.3l0,0L-167.9,26.8L-167.9,26.8L-167.9,26.8z M-168.9,27.4v-0.1l0.8-0.2v0.1L-168.9,27.4z"/>
<polygon class="st58" points="-157.4,6 -157,6.7 -156.3,6.8 -156.8,7.3 -156.7,8 -157.4,7.7 -158,8 -157.9,7.3 -158.4,6.8 
	-157.7,6.7 "/>
<linearGradient id="SVGID_00000023276887874868784590000010855679357037059491_" gradientUnits="userSpaceOnUse" x1="-253.7088" y1="14.4" x2="-179.5033" y2="57.2425">
	<stop  offset="0" style="stop-color:#C5151C"/>
	<stop  offset="1" style="stop-color:#870305"/>
</linearGradient>
<path style="fill:url(#SVGID_00000023276887874868784590000010855679357037059491_);" d="M-261.4,50.5v-20c0,0,0.8-13.5,16.6-14
	l62.7,0.1c1.2,0.1,2.4,0.3,3.5,0.8c2.5,0.9,4.7,2.7,6.2,5c1.4,2.5,2.2,5.3,2.4,8.1c0.5,4.9,0.4,10.6-2.6,14.8
	c-2.6,3.4-6.7,5.4-11,5.3C-199.8,50.6-261.4,50.5-261.4,50.5z"/>
<g>
	<path class="st63" d="M28.7,6h0.4c1-0.1,2-0.1,2.8-0.1c1.5-0.1,3,0.3,4.2,1.1c1.3,0.8,2.1,2.2,1.9,3.7H40l2.5,2.5H28.9v11.3
		c0,0.6,0.3,0.9,1,0.9c1.1-0.1,2.1-0.7,2.8-1.5c0.9-0.8,1.6-1.8,2-2.9h-0.1c-0.7,0-1.3-0.2-1.8-0.6c-0.5-0.4-0.8-1-0.8-1.7
		c0-0.7,0.3-1.4,0.8-1.9c0.5-0.5,1.3-0.8,2-0.7c0.9,0,1.9,0.4,2.4,1.1c0.6,0.7,0.9,1.6,0.9,2.6c0.1,1.9-0.6,3.8-2,5.2
		c-2.3,2.3-4.1,3.5-5.4,3.5c-2.1,0-3.5-1.1-4.1-3.3c-0.1-0.8-0.2-1.7-0.1-2.6v-9.2h-2.5l-2-2.4h13.9c0-0.3,0-0.5,0-0.6
		c0-0.4-0.3-0.7-0.6-0.8C34.7,9.1,34.3,9,33.8,9c-0.6,0-1.5,0-2.6,0.1c-1.1,0.1-2,0.1-2.6,0.1c-1.3,0-2.7-0.3-3.8-1
		c-1.2-0.6-2-1.9-2-3.3c0-0.6,0.2-1.3,0.6-1.8c0.2-0.3,0.6-0.5,1.4-0.5c0.1,0.4,0.1,0.7,0.1,1.1c-0.2,0.2-0.4,0.5-0.4,0.8
		c0,0.5,0.3,0.9,0.7,1.1c0.5,0.3,1.1,0.4,1.7,0.4C27.1,6.2,27.7,6.2,28.7,6z"/>
	<path class="st63" d="M36.1,33.3c-0.3-0.5-0.6-0.9-1-1.3c-0.5-0.4-1.1-0.6-1.7-0.6c-0.3,0-2.4-0.1-6.4-0.2c-4-0.1-6-1.7-6-4.8
		c0.1-1.3,0.4-2.6,0.9-3.8l1.4,1.4c-0.7,1.2-0.4,2.8,0.8,3.5c0.1,0,0.1,0.1,0.2,0.1c1.1,0.4,2.3,0.6,3.6,0.6
		c2.3,0.1,3.7,0.2,4.1,0.2c1.3,0.1,2.6,0.6,3.5,1.6l0,0v-9.5l2.3-2.2v16.4C37.1,34.3,36.6,33.8,36.1,33.3z"/>
	<path class="st63" d="M42.7,12.6c-0.1-1.5-0.2-3.3-0.2-5.3l1.4,1.1c0.1,0.9,0.4,1.7,0.9,2.4h2.6l2.5,2.4h-5v18.8l-2.4-2.6V16.3
		c0-0.8-0.3-1.6-0.9-2.2c-0.6-0.6-1.4-0.9-2.3-0.9h-0.5l-2.5-2.4c1-0.1,1.8-0.2,2.3-0.2C40.3,10.5,41.8,11.3,42.7,12.6z"/>
	<path class="st63" d="M63.1,6.1h0.2h0.3c1-0.1,2-0.1,2.8-0.1c1.5-0.1,3,0.3,4.4,1.1c1.2,0.8,1.9,2.2,1.8,3.7h2.2l2.5,2.4H63.4v11.3
		c0,0.6,0.3,0.9,1,0.9c1.1-0.1,2.1-0.7,2.8-1.5c0.9-0.8,1.6-1.8,2-2.9h-0.1c-0.7,0-1.3-0.2-1.8-0.6c-0.5-0.4-0.8-1-0.8-1.7
		c0-0.7,0.3-1.4,0.8-1.9c0.5-0.5,1.3-0.8,2-0.7c0.9,0,1.9,0.4,2.4,1.1c0.6,0.7,0.9,1.6,0.9,2.6c0.1,1.9-0.7,3.8-2,5.2
		c-0.8,0.8-1.7,1.6-2.6,2.3c-1,0.7-2.2,1.1-3.4,1.1c-0.9,0-1.7-0.3-2.5-0.8c-1-0.6-1.5-1.3-1.5-2v-4c0-0.1-0.1-0.2-0.1-0.3l-0.2-0.5
		c-0.2-0.9-1-1.6-1.9-1.6c-0.6,0-1.5,0.8-2.7,2.5c-0.7,1.1-1.1,1.7-1.2,1.8c-0.4,0.6-0.9,1.1-1.6,1.3c-0.2,0-0.5,0-0.7,0
		c-0.6,0.1-1.1-0.1-1.6-0.3c-0.7-0.4-1.3-1-1.6-1.7c-0.1-0.1-0.5-0.8-1.2-2.1l1.9-1.8c0.1,0.6,0.3,1.3,0.6,1.8
		c0.3,0.6,0.6,0.9,0.9,0.9c0.4,0,1.4-1.1,2.9-3.2c-0.2-2-1-3.2-2.4-3.4l-2.3-0.2c-0.8-0.1-1.5-0.4-2.2-0.9l-0.4-0.9l-2.2-2h25.5
		c0-0.4,0-0.6,0-0.6c0-0.4-0.3-0.7-0.6-0.8C69.1,9.1,68.7,9,68.3,9c-0.6,0-1.5,0-2.6,0.1c-1.1,0.1-2,0.1-2.6,0.1
		c-1.3,0-2.7-0.3-3.8-1c-1.2-0.6-2-1.9-2-3.3c0-0.6,0.2-1.3,0.6-1.8c0.2-0.4,0.7-0.5,1.4-0.5c0.1,0.4,0.2,0.7,0.2,1.1
		c-0.2,0.2-0.4,0.5-0.4,0.8c0,0.5,0.3,1,0.7,1.2c0.5,0.3,1.1,0.4,1.7,0.4C61.9,6.2,62.5,6.2,63.1,6.1z M55.7,16.6
		c0.4-0.3,0.9-0.6,1.3-0.8c0.8-0.1,1.5,0.1,2.2,0.5c0.6,0.4,1.1,1,1.5,1.6l0.1,0.1v-4.8H54C55.1,14,55.7,15.3,55.7,16.6L55.7,16.6z"
		/>
</g>
<path class="st63" d="M176.6,23.3l-1.9-6.6l0.7-0.2c0.2,0.7,1.3,1.4,3.3,2.2c1.4,0.6,2.9,1,4.4,1.1c0.8,0,1.6-0.2,2.4-0.7
	c0.8-0.4,1.2-0.9,1.2-1.5c0-0.2-0.1-0.4-0.2-0.6c-0.7-1.3-1.9-2.2-3.2-2.7l-3.9-1.6c-1.2-0.5-1.9-1.7-1.9-3c0-0.7,0.2-1.3,0.7-1.8
	c0.5-0.5,1.1-0.7,1.8-0.8c1.1-0.2,2.2,0.5,2.4,1.7c0,0.1,0,0.3,0,0.4c1.6,0.7,3.2,1.7,4.5,2.9c1.4,1.2,2.2,2.9,2.2,4.8
	c0.1,1.1-0.2,2.2-0.7,3.1c-0.6,0.9-1.4,1.6-2.4,2.1c-0.5,0.3-1.1,0.6-1.7,0.8c2.8,1.8,5.4,3.8,7.8,6.1l-0.6,2.4
	C186.4,26.2,182.2,24.4,176.6,23.3z"/>
<path class="st63" d="M200.3,29.8c-1.6,0-3.2-0.5-4.4-1.5c-1.4-0.9-2.2-2.4-2.3-4c0-1,0.4-2,1.1-2.8c0.7-0.8,1.6-1.4,2.6-1.8
	c-1.9-0.7-3.1-2.5-3-4.6c0-1.8,1-3.5,2.5-4.5c1.5-1.1,3.2-1.7,5.1-1.7c1.4,0,2.9,0.4,4,1.3c1.2,0.8,2,2.2,2,3.6
	c0,0.9-0.3,1.8-0.8,2.5c-0.5,0.8-1.2,1.5-2,2.1c2.3,0.9,3.7,3.1,3.5,5.6c0,1.8-1,3.2-2.9,4.3C204,29.3,202.2,29.8,200.3,29.8z
	 M200.6,20.9c-2.1,1.2-3.1,2.5-3.1,3.8c0,0.8,0.5,1.4,1.1,1.8c0.7,0.4,1.5,0.6,2.4,0.6c0.6,0,1.9,0,2.9-0.9c0.5-0.4,0.9-0.9,1-1.3
	c0-0.2,0.1-0.3,0-0.5c0-0.3-0.2-0.7-0.5-1.1c-0.4-0.5-0.8-0.9-1-1.2C202.7,21.4,201.7,20.9,200.6,20.9L200.6,20.9z M201.1,11.3
	c-0.8,0-1.6,0.3-2.3,0.7c-0.7,0.5-1.1,1-1.1,1.8c0,0.9,0.5,1.7,1.2,2.2c0.8,0.6,1.7,1.1,2.6,1.3c0.7-0.4,1.4-0.8,2.1-1.3
	c0.7-0.4,1.1-1.2,1.1-2c0-0.8-0.4-1.6-1.1-2C202.9,11.5,202,11.2,201.1,11.3L201.1,11.3z"/>
<path class="st58" d="M110.6,10.1c-2.4-2.4-5.5-3.7-8.8-3.8c-2,0-3.9,0.4-5.7,1.3c-1.4,0.6-2.4,1.7-2.7,3.2h2.3v2.7h-2.8V31h-3.7
	V13.5h-2.8v-2.7h2.9c0.7-2.2,2.2-4.1,4.3-5.2c3.6-1.8,7.8-2.3,11.7-1.4c1.2,0.3,2.4,0.7,3.5,1.3c1.1,0.5,2.2,1.2,3.1,2
	c0.9,0.8,1.8,1.6,2.5,2.6L110.6,10.1z"/>
<path class="st58" d="M117.9,13.5h-3.3v17.4H111v-8c0-0.8-0.1-1.6-0.5-2.3c-0.3-0.6-0.8-1.2-1.3-1.6c-0.6-0.5-1.3-0.8-2-1
	c-0.8-0.2-1.6-0.3-2.4-0.3c-1.5-0.1-2.9,0.4-4.1,1.3c-1,0.7-1.6,1.8-1.6,3c0,1.3,0.6,2.5,1.7,3.3c1.2,1,2.7,1.4,4.2,1.4
	c0.8,0,1.6-0.1,2.4-0.3v2.9l-1.2,0.1c-0.4,0-0.8,0.1-1.3,0.1c-1.2,0-2.5-0.2-3.7-0.6c-1.1-0.4-2.1-0.9-3-1.7
	c-0.8-0.7-1.4-1.5-1.9-2.4C95.9,24,95.6,23,95.6,22c0-2,0.9-3.8,2.4-5.1c3.9-2.7,9.1-2.7,12.9,0.2v-3.7H93.2v-2.7h24.6V13.5z"/>
<path class="st58" d="M141,13.6h-10.9v6.1h6.9c0.9,1,1.4,2.3,1.4,3.7c-0.1,2-1.1,4-2.7,5.2c-0.9,0.8-2,1.4-3.1,1.9
	c-1.1,0.4-2.3,0.7-3.6,0.7c-2.9,0-5.7-0.9-8.1-2.5c-2.5-1.7-3.7-3.7-3.7-5.9v-8.1h3.7v1.1c0,0.5,0,1,0,1.4c0,0.1,0,0.2,0,0.3
	c0,0.1,0,0.2,0,0.3c0,0.3,0,0.6,0,0.8v0.6c0,2.9,0.4,5,1.3,6.4c1.2,1.9,3.4,2.8,6.7,2.8c1.5-0.1,2.9-0.6,4-1.6c0.5-0.5,1-1,1.3-1.6
	c0.3-0.5,0.5-1.1,0.5-1.7c0-0.4-0.1-0.8-0.3-1.2h-8.1v-8.8h-11.9v-2.9h19.2c-0.7-2-3-2.9-6.9-2.9c-0.6,0-1.3,0.1-1.9,0.2
	c-0.7,0.1-1.3,0.3-2,0.5c-1.2,0.3-2.2,1.1-2.7,2.1h-3.8c0.3-1.8,1.8-3.2,4.3-4.2c2-0.8,4.2-1.2,6.3-1.2c5.6,0,9,1.7,10.2,5.4h3.6
	V13.6z"/>
<path class="st58" d="M167.1,13.6h-15.9v1.2h7.7c1.4,1,2.7,2.2,3.6,3.7c0.8,1.3,1.2,2.8,1.3,4.3c0,1.8-0.5,3.6-1.4,5.2
	c-1.1,2-2.8,3.5-4.9,4.4l-0.9-2.7c0.6-0.2,1.1-0.6,1.5-1c0.5-0.4,0.9-0.9,1.2-1.5c0.3-0.5,0.6-1.1,0.8-1.7c0.2-0.5,0.3-0.9,0.3-1.4
	c0-1.3-0.2-2.7-0.8-3.9c-0.5-1.1-1.4-2-2.4-2.5h-5.9v2h5.7c1.2,1.1,1.8,2.6,1.9,4.2c0,2-0.9,3.8-2.4,5.1c-1.7,1.6-3.9,2.5-6.3,2.4
	c-1.3,0-2.5-0.2-3.7-0.6c-1.2-0.4-2.3-1-3.4-1.8c-0.5-0.3-0.9-0.7-1.2-1.2c-0.4-0.4-0.7-0.9-1-1.4c-0.5-0.9-0.9-1.9-0.9-2.9v-9.1
	h3.6v1c0,0.5,0,0.9,0,1.2c0,0.1,0,0.3,0,0.4c0,0.1,0,0.3,0,0.4c0,0.6,0,1.1-0.1,1.5s0,0.8,0,1.1c0,5.6,2.1,8.3,6.4,8.3
	c1.4,0,2.7-0.4,3.8-1.3c1-0.7,1.6-1.9,1.6-3.1c0-0.3,0-0.6-0.1-0.9c-0.1-0.3-0.2-0.5-0.4-0.8h-7v-8.8h-10.3v-2.8h29.6V13.6z"/>
</svg>
